<svg xmlns="http://www.w3.org/2000/svg" xmlns:xlink="http://www.w3.org/1999/xlink" version="1.1" width="45" height="45" viewBox="0 0 256 256" xml:space="preserve">

<defs>
</defs>
<g style="stroke: none; stroke-width: 0; stroke-dasharray: none; stroke-linecap: butt; stroke-linejoin: miter; stroke-miterlimit: 10; fill: none; fill-rule: nonzero; opacity: 1;" transform="translate(1.4065934065934016 1.4065934065934016) scale(2.81 2.81)" >
	<circle cx="45" cy="45" r="43" style="stroke: none; stroke-width: 1; stroke-dasharray: none; stroke-linecap: butt; stroke-linejoin: miter; stroke-miterlimit: 10; fill: rgb(255,210,65); fill-rule: nonzero; opacity: 1;" transform="  matrix(1 0 0 1 0 0) "/>
	<path d="M 45 90 C 20.187 90 0 69.813 0 45 C 0 20.187 20.187 0 45 0 c 24.813 0 45 20.187 45 45 C 90 69.813 69.813 90 45 90 z M 45 4 C 22.393 4 4 22.393 4 45 s 18.393 41 41 41 s 41 -18.393 41 -41 S 67.607 4 45 4 z" style="stroke: none; stroke-width: 1; stroke-dasharray: none; stroke-linecap: butt; stroke-linejoin: miter; stroke-miterlimit: 10; fill: rgb(0,0,0); fill-rule: nonzero; opacity: 1;" transform=" matrix(1 0 0 1 0 0) " stroke-linecap="round" />
	<path d="M 26.739 71.309 c -0.58 0 -1.154 -0.251 -1.55 -0.734 c -0.699 -0.855 -0.572 -2.115 0.283 -2.814 c 5.497 -4.491 12.432 -6.965 19.528 -6.965 s 14.03 2.474 19.527 6.965 c 0.855 0.699 0.982 1.959 0.283 2.814 c -0.7 0.855 -1.958 0.982 -2.814 0.283 c -4.784 -3.909 -10.82 -6.063 -16.996 -6.063 s -12.212 2.153 -16.997 6.063 C 27.632 71.161 27.184 71.309 26.739 71.309 z" style="stroke: none; stroke-width: 1; stroke-dasharray: none; stroke-linecap: butt; stroke-linejoin: miter; stroke-miterlimit: 10; fill: rgb(0,0,0); fill-rule: nonzero; opacity: 1;" transform=" matrix(1 0 0 1 0 0) " stroke-linecap="round" />
	<path d="M 24.266 46.504 c -0.211 0 -0.422 -0.005 -0.634 -0.013 c -1.104 -0.043 -1.964 -0.973 -1.921 -2.076 c 0.043 -1.104 0.978 -1.96 2.076 -1.921 c 2.906 0.107 5.655 -0.751 7.969 -2.496 c 2.315 -1.746 3.902 -4.158 4.591 -6.977 c 0.262 -1.073 1.344 -1.729 2.417 -1.468 c 1.073 0.262 1.73 1.344 1.468 2.417 c -0.897 3.671 -3.052 6.946 -6.068 9.221 C 31.318 45.339 27.825 46.504 24.266 46.504 z" style="stroke: none; stroke-width: 1; stroke-dasharray: none; stroke-linecap: butt; stroke-linejoin: miter; stroke-miterlimit: 10; fill: rgb(0,0,0); fill-rule: nonzero; opacity: 1;" transform=" matrix(1 0 0 1 0 0) " stroke-linecap="round" />
	<path d="M 65.734 46.504 c -3.561 0 -7.053 -1.165 -9.899 -3.313 c -3.017 -2.274 -5.171 -5.549 -6.068 -9.221 c -0.262 -1.073 0.396 -2.155 1.469 -2.417 c 1.071 -0.261 2.155 0.396 2.418 1.468 c 0.688 2.818 2.275 5.231 4.59 6.977 c 2.281 1.721 5.111 2.608 7.969 2.496 c 1.143 -0.045 2.034 0.818 2.076 1.921 c 0.043 1.104 -0.816 2.033 -1.92 2.076 C 66.156 46.499 65.945 46.504 65.734 46.504 z" style="stroke: none; stroke-width: 1; stroke-dasharray: none; stroke-linecap: butt; stroke-linejoin: miter; stroke-miterlimit: 10; fill: rgb(0,0,0); fill-rule: nonzero; opacity: 1;" transform=" matrix(1 0 0 1 0 0) " stroke-linecap="round" />
	<path d="M 14.022 31.617 c -5.427 0 -9.842 -4.415 -9.842 -9.842 c 0 -2.377 0.859 -4.671 2.418 -6.461 c 0.04 -0.045 0.082 -0.091 0.124 -0.136 l 0.015 -0.016 c 0.009 -0.011 0.018 -0.022 0.027 -0.032 c 3.09 -3.374 5.258 -7.119 6.626 -11.448 c 0.087 -0.275 0.343 -0.462 0.631 -0.462 c 0.289 0 0.544 0.187 0.631 0.462 c 1.369 4.329 3.536 8.073 6.626 11.448 c 0.026 0.028 0.049 0.059 0.069 0.09 c 1.623 1.812 2.515 4.135 2.515 6.555 C 23.864 27.202 19.449 31.617 14.022 31.617 z" style="stroke: none; stroke-width: 1; stroke-dasharray: none; stroke-linecap: butt; stroke-linejoin: miter; stroke-miterlimit: 10; fill: rgb(65,186,255); fill-rule: nonzero; opacity: 1;" transform=" matrix(1 0 0 1 0 0) " stroke-linecap="round" />
	<path d="M 14.022 33.617 c -6.53 0 -11.842 -5.312 -11.842 -11.842 c 0 -2.86 1.033 -5.621 2.91 -7.774 c 0.041 -0.046 0.083 -0.094 0.127 -0.141 l 0.099 -0.109 c 2.862 -3.127 4.889 -6.627 6.168 -10.671 c 0.353 -1.113 1.373 -1.859 2.538 -1.859 s 2.185 0.747 2.537 1.857 c 1.279 4.046 3.306 7.546 6.195 10.702 c 0.056 0.062 0.109 0.125 0.158 0.189 c 1.904 2.166 2.951 4.933 2.951 7.806 C 25.864 28.305 20.552 33.617 14.022 33.617 z M 8.278 16.44 l -0.171 0.188 c -1.242 1.425 -1.926 3.253 -1.926 5.147 c 0 4.324 3.518 7.842 7.842 7.842 c 4.324 0 7.841 -3.518 7.841 -7.842 c 0 -1.923 -0.712 -3.777 -2.004 -5.22 l -0.132 -0.159 c -2.419 -2.659 -4.303 -5.534 -5.705 -8.718 C 12.613 10.879 10.716 13.769 8.278 16.44 z" style="stroke: none; stroke-width: 1; stroke-dasharray: none; stroke-linecap: butt; stroke-linejoin: miter; stroke-miterlimit: 10; fill: rgb(0,0,0); fill-rule: nonzero; opacity: 1;" transform=" matrix(1 0 0 1 0 0) " stroke-linecap="round" />
</g>
</svg>